<svg xmlns="http://www.w3.org/2000/svg" xmlns:xlink="http://www.w3.org/1999/xlink"
	viewBox="0 50 100 200">
	<path 
		fill="#FFFFFF" 
		stroke="#000000" 
		stroke-width="6" 
		stroke-linejoin="round" 
		d="M20.167,245.321c0.631-18.216-10.689-35.851-15.362-43.565c-8.823-14.565-23.455-29.479-34.001-43.274   c-2.373-3.104-3.656-12.153,0.927-17c4.602-4.865,9.752-3.691,14.073-1.164c9.713,6.68,16.283,12.594,24.729,24.11   c2.888,3.938,10.641,9.511,10.654,18.419V86.77c0-9.033,6.507-15.382,15.31-14.837c8.804,0.545,12.017,8.194,12.074,15.146   l0.618,75.112c-0.272-17.738,1.554-28.578,9.71-28.604c8.152-0.024,11.57,11.886,11.927,29.222   c-0.356-18.058,2.338-23.168,10.872-23.312c8.533-0.142,10.884,11.588,11.074,34.438c0.016-18.009,4.334-25.772,8.346-25.964   c4.013-0.191,14.064,7.957,14.129,26.361l0.09,25.877c0.028,7.916-11.516,13.983-11.583,21.908l-0.2,23.239">
	</path>
</svg>